<svg width="257" height="97" xmlns="http://www.w3.org/2000/svg" xmlns:xlink="http://www.w3.org/1999/xlink" xml:space="preserve" overflow="hidden"><g transform="translate(-33 -53)"><g><g><g><g><path d="M103.409 57.8484 100.631 57.8484C100.45 57.8484 100.299 57.7276 100.269 57.5465L97.4606 43.6882 94.5924 57.5766C94.5622 57.7578 94.4112 57.8786 94.2301 57.8786L91.2712 57.8786C91.1806 57.8786 91.1203 57.8182 91.1203 57.7578L86.8933 40.9105C86.8632 40.7898 86.9537 40.6992 87.0443 40.6992L89.0068 40.6992C89.2785 40.6992 89.5201 40.8803 89.5805 41.1521L92.962 55.1915 95.7699 41.1822C95.8302 40.9105 96.0718 40.6992 96.3435 40.6992L98.6683 40.6992C98.9401 40.6992 99.1816 40.9105 99.242 41.1822L101.839 54.7688 105.22 41.1521C105.28 40.8803 105.522 40.6992 105.794 40.6992L107.635 40.6992C107.756 40.6992 107.817 40.7898 107.786 40.9105L103.559 57.7276C103.559 57.788 103.469 57.8484 103.409 57.8484Z" fill="#00B4FF" fill-rule="nonzero" fill-opacity="1" transform="matrix(1.00713 0 0 1 34 54.0396)"/><path d="M119.38 57.8484 117.448 57.8484C117.357 57.8484 117.267 57.788 117.267 57.6672L117.267 49.4851C117.267 46.1036 113.312 46.8886 111.289 48.5794L111.289 57.6672C111.289 57.7578 111.228 57.8484 111.108 57.8484L109.175 57.8484C109.085 57.8484 108.994 57.788 108.994 57.6672L108.994 40.8199C108.994 40.7294 109.054 40.6388 109.175 40.6388L110.594 40.6388C110.957 40.6388 111.258 40.9407 111.258 41.303L111.258 46.2244C115.183 43.6882 119.531 44.5336 119.531 48.8813L119.531 57.637C119.561 57.7578 119.471 57.8484 119.38 57.8484Z" fill="#00B4FF" fill-rule="nonzero" fill-opacity="1" transform="matrix(1.00713 0 0 1 34 54.0396)"/><path d="M127.109 58.1201C122.067 57.8484 121.826 55.0405 121.826 54.014 121.826 53.0478 122.309 51.4174 124.03 50.572 126.234 49.4851 129.676 50.1494 130.068 50.1494 130.068 49.9078 130.068 49.3644 130.068 49.1832 130.098 46.949 125.721 46.7376 122.762 48.2472 122.641 48.3076 122.52 48.217 122.52 48.0963L122.52 46.4961C122.52 46.4357 122.55 46.3753 122.611 46.3451 127.653 44.0505 132.363 45.6507 132.363 48.7001L132.363 57.6974C132.303 57.7578 132.272 57.788 132.212 57.8786 130.733 58.0295 128.619 58.1805 127.109 58.1201ZM130.098 51.9005C127.019 51.4476 125.177 51.6288 124.483 52.927 124.332 53.229 124.211 53.5913 124.211 54.0442 124.211 56.2784 126.687 56.7313 130.098 56.1878L130.098 51.9005Z" fill="#00B4FF" fill-rule="nonzero" fill-opacity="1" transform="matrix(1.00713 0 0 1 34 54.0396)"/><path d="M135.261 57.6672 135.261 40.8199C135.261 40.7294 135.322 40.6388 135.443 40.6388L136.952 40.6388C137.284 40.6388 137.556 40.9105 137.556 41.2426L137.556 57.6672C137.556 57.7578 137.496 57.8484 137.375 57.8484L135.443 57.8484C135.352 57.8484 135.261 57.7578 135.261 57.6672Z" fill="#00B4FF" fill-rule="nonzero" fill-opacity="1" transform="matrix(1.00713 0 0 1 34 54.0396)"/><path d="M142.598 52.3534C142.628 54.8593 144.591 56.1274 146.282 56.3388 148.274 56.5803 149.723 56.0972 150.75 55.6443 150.871 55.584 150.992 55.6745 150.992 55.7953L150.992 57.1238C150.992 57.1841 150.961 57.2445 150.901 57.2747 150.025 57.6974 148.667 58.2107 146.674 58.1201 144.561 58.0295 142.93 57.5163 141.813 56.3388 140.696 55.1311 140.152 53.4705 140.152 51.3269 140.152 47.3717 142.658 45.0469 146.07 45.0469 149.542 45.0469 151.595 47.734 151.595 51.7495L151.595 52.142C151.595 52.2628 151.505 52.3534 151.384 52.3534L142.598 52.3534ZM146.161 46.7376C143.142 46.7376 142.779 49.4247 142.749 50.6626L149.12 50.6626C149.089 50.0588 149.18 46.7376 146.161 46.7376Z" fill="#00B4FF" fill-rule="nonzero" fill-opacity="1" transform="matrix(1.00713 0 0 1 34 54.0396)"/><path d="M160.472 49.4549C160.472 41.4238 165.182 39.7028 172.186 41.1219 172.277 41.1521 172.337 41.2124 172.337 41.303L172.337 42.8126C172.337 43.024 172.156 43.1749 171.945 43.1447 171.432 43.0542 171.1 43.024 170.043 42.873 163.642 41.9371 163.008 47.0697 163.008 49.4549 163.008 52.0515 163.37 56.4897 169.892 56.0368 170.466 56.0067 171.311 55.9161 171.945 55.7953 172.156 55.7651 172.337 55.9161 172.337 56.1274L172.337 57.5766C172.337 57.6672 172.277 57.7276 172.217 57.7578 165.454 59.207 160.472 57.4861 160.472 49.4549Z" fill="#00B4FF" fill-rule="nonzero" fill-opacity="1" transform="matrix(1.00713 0 0 1 34 54.0396)"/><path d="M174.27 57.6672 174.27 40.8199C174.27 40.7294 174.33 40.6388 174.451 40.6388L175.9 40.6388C176.262 40.6388 176.564 40.9407 176.564 41.303L176.564 57.6672C176.564 57.7578 176.504 57.8484 176.383 57.8484L174.451 57.8484C174.36 57.8484 174.27 57.7578 174.27 57.6672Z" fill="#00B4FF" fill-rule="nonzero" fill-opacity="1" transform="matrix(1.00713 0 0 1 34 54.0396)"/><path d="M191.298 51.4778C191.298 52.444 191.147 53.3497 190.845 54.1649 190.543 54.9801 190.121 55.7047 189.577 56.2784 189.034 56.8822 188.4 57.3351 187.675 57.6672 186.951 57.9993 186.135 58.1503 185.26 58.1503 184.294 58.1503 183.448 57.9993 182.693 57.6672 181.939 57.3351 181.305 56.8822 180.791 56.2784 180.278 55.6745 179.886 54.9801 179.614 54.1649 179.342 53.3497 179.221 52.444 179.221 51.4778 179.221 50.4815 179.372 49.5757 179.644 48.7605 179.916 47.9453 180.308 47.2811 180.821 46.7074 181.335 46.164 181.969 45.7111 182.724 45.4092 183.478 45.1072 184.324 44.9563 185.29 44.9563 186.256 44.9563 187.101 45.1072 187.856 45.4092 188.611 45.7111 189.245 46.1338 189.758 46.7074 190.272 47.2509 190.664 47.9453 190.936 48.7605 191.177 49.5757 191.298 50.4815 191.298 51.4778ZM188.883 51.4778C188.883 49.9984 188.581 48.8511 187.977 48.0057 187.373 47.1905 186.467 46.7678 185.29 46.7678 184.112 46.7678 183.207 47.1905 182.603 48.0057 181.999 48.8209 181.697 49.9984 181.697 51.4778 181.697 52.9874 181.999 54.1649 182.603 55.0405 183.207 55.9161 184.112 56.369 185.29 56.369 186.467 56.369 187.373 55.9161 187.977 55.0405 188.551 54.1649 188.883 52.9874 188.883 51.4778Z" fill="#00B4FF" fill-rule="nonzero" fill-opacity="1" transform="matrix(1.00713 0 0 1 34 54.0396)"/><path d="M202.077 57.2747 202.077 56.6407C201.141 57.1841 199.601 58.0295 197.699 58.0295 196.521 58.0295 195.404 57.5163 195.072 57.2143 194.74 56.9124 194.468 56.5199 194.257 56.0067 194.046 55.4934 193.955 54.8593 193.955 54.1045L193.955 45.4394C193.955 45.3488 194.015 45.2582 194.136 45.2582L195.706 45.2582C196.008 45.2582 196.25 45.4997 196.25 45.8319L196.25 53.1384C196.25 54.9801 196.672 55.6745 197.457 55.9161 198.997 56.4293 201.141 55.3726 201.926 54.8292L201.926 45.4696C201.926 45.379 201.986 45.2884 202.107 45.2884L203.677 45.2884C203.979 45.2884 204.22 45.5299 204.22 45.862L204.22 57.6672C204.22 57.7578 204.16 57.8484 204.039 57.8484L202.681 57.8484C202.318 57.8484 202.077 57.6068 202.077 57.2747Z" fill="#00B4FF" fill-rule="nonzero" fill-opacity="1" transform="matrix(1.00713 0 0 1 34 54.0396)"/><path d="M217.867 42.6617C217.867 43.6882 217.867 44.8053 217.867 45.9526 217.867 47.1301 217.867 48.3076 217.867 49.4851 217.867 50.6626 217.867 51.7797 217.867 52.8667 217.867 53.9234 217.867 54.8593 217.867 55.7047L217.867 57.5163C217.867 57.6068 217.807 57.6672 217.716 57.6974 217.445 57.7276 217.173 57.788 216.841 57.8182 216.479 57.8786 216.116 57.9088 215.724 57.9691 215.331 57.9993 214.969 58.0295 214.576 58.0597 214.184 58.0899 213.822 58.0899 213.49 58.0899 212.554 58.0899 211.678 57.939 210.863 57.6672 210.048 57.3955 209.353 56.9728 208.749 56.4293 208.145 55.8859 207.693 55.2216 207.36 54.4065 207.028 53.5913 206.847 52.6855 206.847 51.6288 206.847 50.6324 206.968 49.6965 207.24 48.8813 207.511 48.0661 207.904 47.3415 208.417 46.7678 208.93 46.1942 209.564 45.7413 210.319 45.4092 211.557 44.8959 213.339 44.6242 215.543 45.0771L215.543 41.3332C215.543 40.9709 215.845 40.669 216.207 40.669L217.656 40.669C217.747 40.669 217.837 40.7294 217.837 40.8501L217.837 42.6617 217.867 42.6617ZM215.573 46.9792C215.09 46.8886 214.667 46.8584 214.365 46.798 214.033 46.7678 213.731 46.7376 213.49 46.7376 212.131 46.7376 211.104 47.1301 210.41 47.9151 209.715 48.7001 209.353 49.9078 209.353 51.5382 209.353 52.2326 209.444 52.8667 209.625 53.4403 209.806 54.014 210.078 54.497 210.44 54.9197 210.802 55.3424 211.255 55.6443 211.769 55.8859 212.312 56.1274 212.916 56.218 213.58 56.218 213.791 56.218 214.063 56.218 214.365 56.1878 214.667 56.1576 215.09 56.1274 215.573 56.0972L215.573 46.9792Z" fill="#00B4FF" fill-rule="nonzero" fill-opacity="1" transform="matrix(1.00713 0 0 1 34 54.0396)"/><path d="M51.2061 47.1905C51.2061 48.4411 50.1923 49.4549 48.9417 49.4549 47.6911 49.4549 46.6772 48.4411 46.6772 47.1905 46.6772 45.9399 47.6911 44.9261 48.9417 44.9261 50.1923 44.9261 51.2061 45.9399 51.2061 47.1905Z" fill="#00B4FF" fill-rule="nonzero" fill-opacity="1" transform="matrix(1.00713 0 0 1 34 54.0396)"/><path d="M73.1559 62.1659 46.164 62.1659C43.5372 62.1659 41.0615 61.1393 39.2197 59.2976 37.3478 57.4257 36.3515 54.9801 36.3515 52.3534L36.3515 49.8172C36.3515 46.6169 37.2874 43.5372 39.099 40.9105L39.1292 40.8803C40.6388 38.7367 42.6617 36.9251 44.9865 35.6873 47.3717 34.4192 50.089 33.7248 52.8365 33.7248 54.799 33.7248 56.7615 34.0569 58.6032 34.7513 60.3845 35.4155 62.0149 36.3515 63.4943 37.5592 64.7322 38.5555 65.7889 39.733 66.6343 41.0615 67.2684 42.0578 67.8118 43.1146 68.2043 44.2317 72.6124 45.379 75.7826 49.3644 75.7826 54.014 75.7826 54.0743 75.7826 54.2857 75.7826 54.3159L71.8274 54.3159C71.8274 54.2253 71.8274 54.0442 71.8274 54.014 71.8274 50.9042 69.4422 48.2774 66.423 47.8245 65.6682 47.7038 65.0945 47.7642 65.0945 47.7642L64.7624 46.4659C64.1586 44.2015 62.8301 42.1484 61.0186 40.669L60.9884 40.669C59.8713 39.733 58.6032 39.0084 57.2445 38.5253 55.8255 38.0121 54.3763 37.7403 52.8365 37.7403 50.7532 37.7403 48.6699 38.2536 46.8584 39.2197 45.0771 40.1557 43.5372 41.5144 42.3899 43.1749 41.0615 45.1374 40.3369 47.4622 40.3369 49.8474L40.3369 52.3534C40.3369 55.6142 42.9938 58.2409 46.2244 58.2409L73.2162 58.2409C75.8732 58.2409 78.047 56.067 78.047 53.4101L78.047 52.8365 82.0022 52.8365 82.0022 53.4101C81.9116 58.2409 77.9866 62.1659 73.1559 62.1659Z" fill="#00B4FF" fill-rule="nonzero" fill-opacity="1" transform="matrix(1.00713 0 0 1 34 54.0396)"/></g></g></g></g></g></svg>